Coordinates
version=1
nRows=14
nColumns=36
inDegrees=yes

Units are S.I. units (second, meters, Newtons, ...)
If the header above contains a line with 'inDegrees', this indicates whether rotational values are in degrees (yes) or radians (no).

endheader
time	pelvis_tilt	pelvis_list	pelvis_rotation	pelvis_tx	pelvis_ty	pelvis_tz	hip_flexion_r	hip_adduction_r	hip_rotation_r	knee_angle_r	knee_angle_r_beta	ankle_angle_r	subtalar_angle_r	mtp_angle_r	hip_flexion_l	hip_adduction_l	hip_rotation_l	knee_angle_l	knee_angle_l_beta	ankle_angle_l	subtalar_angle_l	mtp_angle_l	lumbar_extension	lumbar_bending	lumbar_rotation	arm_flex_r	arm_add_r	arm_rot_r	elbow_flex_r	pro_sup_r	arm_flex_l	arm_add_l	arm_rot_l	elbow_flex_l	pro_sup_l
      5.01666670	      2.19923989	     -1.05344323	      4.34345766	      0.52758824	      0.96137268	      0.20236305	      2.26678977	     -5.06166316	     -3.72970582	     12.61044581	      0.22009380	      7.53437844	     -8.45942629	     -7.49999987	     -0.24213702	     -8.98790771	     -4.51688668	      9.36185479	      0.16339519	      7.45106673	     -5.23748670	     -7.49999987	    -11.23368328	      1.62266393	      1.13543537	     36.74239581	     -0.97783392	     55.45623457	    122.41664124	     93.35191110	     40.11680974	      0.64278533	     60.91896855	    113.42691610	    100.66587905
      5.03333330	      2.53045126	     -1.04548084	      4.61341239	      0.52714769	      0.95815806	      0.20198025	      1.74712292	     -5.07031243	     -4.09993648	     12.43378304	      0.21701045	      7.77435865	     -7.82671997	     -7.49999987	     -0.60363917	     -8.95882230	     -4.27404022	      9.14444789	      0.15960072	      7.10416514	     -5.46078710	     -7.49999987	    -11.35851070	      1.75182848	      0.47257558	     36.37790116	     -0.26747332	     57.44003114	    122.65382052	     93.84034760	     39.51079000	      0.55170924	     60.30557498	    113.50328149	    100.81563965
      5.05000000	      2.74064792	     -1.02653003	      4.79191571	      0.52678718	      0.95492836	      0.20162831	      1.48320197	     -5.09277628	     -4.18280001	     12.41406782	      0.21666636	      7.93210422	     -7.75669057	     -7.49999987	     -0.73445898	     -8.92635731	     -4.12784420	      9.17986120	      0.16021880	      6.95735793	     -5.54358318	     -7.49999987	    -11.34747926	      1.82930753	      0.26193757	     36.05018059	      0.26215388	     58.44002454	    122.79757403	     96.03199950	     39.15600461	      0.59683050	     59.75714783	    113.65267827	    101.04773414
      5.06666670	      2.99798567	     -0.99387122	      4.95339996	      0.52626998	      0.95476101	      0.20164268	      1.19119224	     -5.13115464	     -4.24816731	     12.43399359	      0.21701413	      8.04673630	     -7.66394600	     -7.49999987	     -0.87876590	     -8.90035394	     -4.01797376	      9.28734565	      0.16209476	      6.96319621	     -5.55888999	     -7.49999987	    -11.44978802	      1.87795632	      0.03975600	     35.77442590	      0.52668331	     59.29819425	    122.74704088	     96.05858846	     38.89784463	      0.43097647	     59.26679323	    113.87323334	    101.12327222
      5.08333330	      3.19225748	     -0.99598353	      5.09228507	      0.52626282	      0.95232749	      0.20172071	      1.03987431	     -5.13066733	     -4.31296946	     12.57346805	      0.21944842	      8.17073203	     -7.78145891	     -7.49999987	     -0.95968641	     -8.90000421	     -3.85267431	      9.42615396	      0.16451742	      6.89993377	     -5.71627518	     -7.49999987	    -11.53621959	      1.93787144	     -0.01949442	     35.47808807	      0.67489684	     59.72400333	    122.75323396	     95.15062805	     38.88186086	      0.46248089	     59.03761974	    113.88823511	    100.11754687
      5.10000000	      3.43236300	     -0.97591672	      5.19823663	      0.52568214	      0.95708737	      0.20119149	      0.80238337	     -5.16145762	     -4.42242442	     12.64341447	      0.22066921	      8.23183805	     -7.71069257	     -7.49999987	     -1.08327998	     -8.88943837	     -3.69910585	      9.55326127	      0.16673586	      6.91452712	     -5.76610327	     -7.49999987	    -11.79879999	      2.00249821	     -0.06576780	     35.73218769	      0.82570874	     60.20189299	    122.51907366	     95.32736886	     38.82768269	      0.33097105	     59.02887390	    113.64669541	    100.22438582
      5.11666670	      3.66308228	     -0.98586182	      5.27774204	      0.52574337	      0.95769337	      0.20151283	      0.59890133	     -5.14366575	     -4.51707260	     12.74990311	      0.22252779	      8.32254833	     -7.69191387	     -7.49999987	     -1.23506476	     -8.90769426	     -3.54473245	      9.64437782	      0.16832615	      6.87829906	     -5.89078747	     -7.49999987	    -11.94967654	      2.05263859	     -0.20673778	     35.72022315	      1.09143404	     60.63744370	    122.49335829	     94.59439751	     38.65582722	      0.13413220	     59.47769512	    114.00459350	     99.19521372
      5.13333330	      3.86213734	     -0.97066943	      5.31796913	      0.52517754	      0.95775724	      0.20137271	      0.43607837	     -5.15738493	     -4.50238360	     12.83861092	      0.22407603	      8.33416259	     -7.69371680	     -7.49999987	     -1.36312758	     -8.89305321	     -3.52270302	      9.77084995	      0.17053350	      6.78392525	     -6.04899595	     -7.49999987	    -12.08526754	      2.17256331	     -0.39535810	     35.79128126	      1.60473936	     60.74372753	    121.75805035	     96.63581326	     38.59633334	      0.01632956	     59.67848546	    114.33670062	    101.10103750
      5.15000000	      4.03390225	     -0.97146245	      5.34193377	      0.52507667	      0.95754135	      0.20129472	      0.27753738	     -5.14826347	     -4.49636143	     12.91256166	      0.22536672	      8.31316221	     -7.70019032	     -7.49999987	     -1.51388668	     -8.91611866	     -3.61612088	      9.82280429	      0.17144028	      6.85030428	     -5.83893888	     -7.49999987	    -12.13520053	      2.20775547	     -0.30150021	     35.84501171	      1.79140136	     60.73199857	    121.82619487	     96.70829387	     38.51315613	     -0.12825134	     59.97209701	    114.42161503	    101.14841426
      5.16666670	      4.21639222	     -0.93354288	      5.36557046	      0.52978794	      0.96041099	      0.19834599	      0.05872654	     -5.20473632	     -4.54022118	     12.98719069	      0.22666924	      8.32230722	     -7.67324838	     -7.49999987	     -1.72217372	     -8.86252396	     -3.57881056	      9.84522396	      0.17183157	      6.76906667	     -5.86056965	     -7.49999987	    -12.12513129	      2.23074579	     -0.27038319	     35.46531357	      1.62601264	     60.88143333	    121.90750641	     96.70529978	     38.10420355	     -0.26341639	     59.96828250	    114.36908943	    101.14750037
      5.18333330	      4.47398417	     -0.89007142	      5.31140539	      0.52971798	      0.95803575	      0.19860061	     -0.28505865	     -5.24710506	     -4.46782174	     12.90480860	      0.22523140	      8.32864302	     -7.62500335	     -7.49999987	     -2.20138402	     -8.78570607	     -3.68056252	      9.60457033	      0.16763138	      6.62913567	     -5.79044429	     -7.49999987	    -12.17086695	      2.19245532	     -0.16183436	     34.98720364	      1.39692269	     61.01994169	    122.55336379	     95.85118216	     37.59077366	     -0.11325636	     59.32631099	    114.23862118	    100.62866310
      5.20000000	      4.69018330	     -0.83654273	      5.46678946	      0.52917661	      0.95272146	      0.19844177	     -0.64663304	     -5.33467085	     -4.77532787	     12.84254266	      0.22414465	      8.57964267	     -7.17001457	     -7.49999987	     -2.46774572	     -8.71325301	     -3.54122480	      9.57566633	      0.16712691	      6.51141047	     -5.87901117	     -7.49999987	    -12.09771854	      2.21855123	     -0.53164462	     35.32906474	      1.64998738	     60.99940015	    122.51686334	     95.77004014	     37.93548482	     -0.24077707	     59.10349436	    114.37877904	    100.51085983
      5.21666670	      4.68561646	     -0.79918573	      5.53020767	      0.52364179	      0.95240384	      0.19625060	     -0.62062182	     -5.41840258	     -4.74312037	     12.92255489	      0.22554113	      8.63561091	     -7.20451134	     -7.49999987	     -2.42593901	     -8.64195568	     -3.51641927	      9.61607644	      0.16783220	      6.54272533	     -5.84684157	     -7.49999987	    -11.96190512	      2.22813180	     -0.67179965	     35.73704343	      1.73470527	     60.93444655	    122.59242706	     95.77801865	     38.57413944	     -0.12792026	     58.86895323	    114.33748671	    100.52370785
      5.23333330	      4.93211927	     -0.70795119	      5.67244132	      0.52284291	      0.95411432	      0.19545073	     -0.82509513	     -5.55393333	     -4.83780791	     13.09380986	      0.22853009	      8.73007743	     -7.22191841	     -7.49999987	     -2.54936346	     -8.53217071	     -3.37373055	      9.79637611	      0.17097902	      6.64399479	     -5.87546434	     -7.49999987	    -12.27152840	      2.23562360	     -0.75378487	     36.37777026	      1.47300316	     60.98981559	    122.48278757	     95.84257550	     38.97099903	     -0.08965530	     58.79569415	    113.97265124	    101.42135183
